<mxfile host="65bd71144e">
    <diagram id="rFmOCMcaIkLP6CqxaiLA" name="Page-1">
        <mxGraphModel dx="695" dy="566" grid="1" gridSize="10" guides="1" tooltips="1" connect="1" arrows="1" fold="1" page="1" pageScale="1" pageWidth="850" pageHeight="1100" math="0" shadow="0">
            <root>
                <mxCell id="0"/>
                <mxCell id="1" parent="0"/>
                <mxCell id="2" value="OpenShift" style="swimlane;fillColor=#f8cecc;strokeColor=#b85450;" parent="1" vertex="1">
                    <mxGeometry x="20" y="10" width="500" height="480" as="geometry"/>
                </mxCell>
                <mxCell id="3" value="Order-solution" style="swimlane;" parent="2" vertex="1">
                    <mxGeometry x="10" y="30" width="480" height="180" as="geometry"/>
                </mxCell>
                <mxCell id="18" value="Kafka Connector&lt;br&gt;COS sink connector" style="rounded=0;whiteSpace=wrap;html=1;fillColor=#d5e8d4;strokeColor=#82b366;" parent="3" vertex="1">
                    <mxGeometry x="45" y="40" width="120" height="60" as="geometry"/>
                </mxCell>
                <mxCell id="26" value="Kafka Connector&lt;br&gt;COS sink connector" style="rounded=0;whiteSpace=wrap;html=1;fillColor=#d5e8d4;strokeColor=#82b366;" parent="3" vertex="1">
                    <mxGeometry x="210" y="40" width="120" height="60" as="geometry"/>
                </mxCell>
                <mxCell id="10" value="event-streams cluster" style="swimlane;verticalAlign=middle;textDirection=ltr;horizontal=1;" parent="2" vertex="1">
                    <mxGeometry x="11" y="230" width="479" height="180" as="geometry">
                        <mxRectangle x="11" y="320" width="160" height="23" as="alternateBounds"/>
                    </mxGeometry>
                </mxCell>
                <mxCell id="12" value="Event Streams&lt;br&gt;Broker 0" style="rounded=0;whiteSpace=wrap;html=1;fillColor=#dae8fc;strokeColor=#6c8ebf;" parent="10" vertex="1">
                    <mxGeometry x="29" y="130" width="120" height="40" as="geometry"/>
                </mxCell>
                <mxCell id="13" value="Event Streams&lt;br&gt;Broker 1" style="rounded=0;whiteSpace=wrap;html=1;fillColor=#dae8fc;strokeColor=#6c8ebf;" parent="10" vertex="1">
                    <mxGeometry x="169" y="130" width="120" height="40" as="geometry"/>
                </mxCell>
                <mxCell id="14" value="Event Streams&lt;br&gt;Broker 2" style="rounded=0;whiteSpace=wrap;html=1;fillColor=#dae8fc;strokeColor=#6c8ebf;" parent="10" vertex="1">
                    <mxGeometry x="309" y="130" width="120" height="40" as="geometry"/>
                </mxCell>
                <mxCell id="19" value="orders" style="shape=cylinder3;whiteSpace=wrap;html=1;boundedLbl=1;backgroundOutline=1;size=4;rotation=90;align=center;horizontal=0;" parent="10" vertex="1">
                    <mxGeometry x="133" y="36" width="31" height="80" as="geometry"/>
                </mxCell>
                <mxCell id="31" style="edgeStyle=orthogonalEdgeStyle;html=1;entryX=0.5;entryY=1;entryDx=0;entryDy=0;" parent="2" source="19" target="18" edge="1">
                    <mxGeometry relative="1" as="geometry"/>
                </mxCell>
                <mxCell id="32" style="edgeStyle=orthogonalEdgeStyle;html=1;" parent="2" source="19" target="26" edge="1">
                    <mxGeometry relative="1" as="geometry"/>
                </mxCell>
                <mxCell id="27" value="Cloud Provider" style="swimlane;fillColor=#ffe6cc;strokeColor=#d79b00;" parent="1" vertex="1">
                    <mxGeometry x="550" y="10" width="290" height="480" as="geometry"/>
                </mxCell>
                <mxCell id="28" value="" style="shape=cylinder3;whiteSpace=wrap;html=1;boundedLbl=1;backgroundOutline=1;size=15;" parent="27" vertex="1">
                    <mxGeometry x="110" y="190" width="50" height="60" as="geometry"/>
                </mxCell>
                <mxCell id="29" value="s3-bucket services" style="rounded=0;whiteSpace=wrap;html=1;fillColor=#ffe6cc;strokeColor=#d79b00;" parent="27" vertex="1">
                    <mxGeometry x="70" y="130" width="120" height="40" as="geometry"/>
                </mxCell>
                <mxCell id="30" style="edgeStyle=orthogonalEdgeStyle;html=1;entryX=0.5;entryY=0;entryDx=0;entryDy=0;" parent="1" source="26" target="29" edge="1">
                    <mxGeometry relative="1" as="geometry"/>
                </mxCell>
            </root>
        </mxGraphModel>
    </diagram>
</mxfile>